<?xml version="1.0" encoding="UTF-8"?>
<svg id="Laag_1" data-name="Laag 1" xmlns="http://www.w3.org/2000/svg" viewBox="0 0 186.54 133.35">
  <defs>
    <style>
      .cls-1 {
        fill: #231f20;
      }
    </style>
  </defs>
  <path class="cls-1" d="M70.6,104.97l-11.51,27.16,2.88,1.23,11.51-27.16-2.88-1.23ZM52.29,108.58h-2.91v18.77c0,2.39.98,3.43,3.49,3.43.86,0,1.56-.12,2.02-.21v-2.27c-.24.03-.55.03-.92.03-1.23,0-1.68-.34-1.68-1.32v-18.43ZM33.28,126.22c0-1.93,1.38-2.39,3.46-2.75l2.17-.37c1.07-.18,1.56-.27,1.96-.4v1.71c0,3.28-2.94,4.32-4.53,4.32-1.47,0-3.06-.77-3.06-2.51M43.69,131.05c.7,0,1.38-.12,1.81-.25v-2.2c-.18.03-.4.06-.58.06-.83,0-1.1-.46-1.1-1.22v-8.33c0-3.43-2.63-5.02-6.22-5.02-5.33,0-6.49,2.57-6.61,5.39h2.82c.03-1.93,1.38-2.91,3.71-2.91,2.79,0,3.43,1.22,3.43,2.6v1.25c-.28.15-1.07.31-1.62.37l-4.01.55c-4.04.55-4.96,2.72-4.96,5.05,0,3.12,2.33,4.69,5.39,4.69,2.66,0,4.22-.98,5.33-2.21.25,1.47,1.01,2.17,2.63,2.17M15.15,126.22c0-1.93,1.38-2.39,3.46-2.75l2.17-.37c1.07-.18,1.56-.27,1.96-.4v1.71c0,3.28-2.94,4.32-4.53,4.32-1.47,0-3.06-.77-3.06-2.51M25.56,131.05c.7,0,1.38-.12,1.81-.25v-2.2c-.18.03-.4.06-.58.06-.83,0-1.1-.46-1.1-1.22v-8.33c0-3.43-2.63-5.02-6.21-5.02-5.33,0-6.49,2.57-6.61,5.39h2.82c.03-1.93,1.38-2.91,3.7-2.91,2.79,0,3.43,1.22,3.43,2.6v1.25c-.27.15-1.07.31-1.62.37l-4.01.55c-4.04.55-4.96,2.72-4.96,5.05,0,3.12,2.33,4.69,5.39,4.69,2.66,0,4.22-.98,5.33-2.21.24,1.47,1.01,2.17,2.63,2.17M3.28,110.08v4.41H1.07v2.33h2.21v10.53c0,2.39,1.19,3.43,3.7,3.43.86,0,1.5-.12,1.96-.21v-2.3c-.25.03-.7.06-1.07.06-1.22,0-1.65-.34-1.65-1.32v-10.19h2.73v-2.33h-2.73v-4.41h-2.94Z"/>
  <path class="cls-1" d="M174.97,86.21c.15-3.25,2.36-4.56,4.29-4.56,2.6,0,4.04,1.53,4.29,4.56h-8.57ZM171.78,87.83c0,5.69,3.55,8.3,7.68,8.3,3.52,0,6.4-1.93,6.86-5.57h-2.88c-.46,2.11-2.02,3.06-4.19,3.06-2.69,0-4.26-1.59-4.38-5.17h11.66v-.52c0-5.88-2.88-8.82-7.16-8.82-4.72,0-7.59,3.67-7.59,8.72M155.65,84.18c0,2.33,1.59,3.46,4.81,4.26l2.21.55c2.6.64,3.09,1.13,3.09,2.24,0,1.56-1.41,2.51-3.61,2.51-2.82,0-3.95-1.19-4.1-3.25h-2.85c.21,4.38,3.12,5.66,6.8,5.66,4.41,0,6.67-2.3,6.67-5.27,0-2.54-1.22-3.67-5.42-4.68l-1.9-.46c-2.14-.52-2.76-1.19-2.76-2.2,0-1.29,1.16-2.02,3.03-2.02,2.51,0,3.64,1.04,3.71,2.6h2.79c-.06-3.03-2.33-5.05-6.31-5.05-3.43,0-6.15,1.81-6.15,5.11M139.73,87.71c0-3.83,1.74-5.97,4.41-5.97s4.22,2.11,4.22,5.82c0,4.19-1.9,6.03-4.19,6.03-2.57,0-4.44-1.81-4.44-5.88M136.67,87.89c0,5.54,3.55,8.24,6.61,8.24,2.3,0,3.83-.89,5.14-2.82v2.24h2.66v-22.04h-2.85v8.05c-1.32-1.68-2.54-2.36-4.68-2.36-4.19,0-6.89,3.61-6.89,8.7M122,79.5h-2.79v16.04h2.91v-9.37c0-2.91,2.14-4.47,4.44-4.47,1.99,0,3,1.32,3,3.77v10.07h2.97v-10.35c0-4.41-1.96-6.06-5.33-6.06-2.24,0-3.86.89-5.2,2.63v-2.27ZM103.42,91.23c0-1.93,1.38-2.39,3.46-2.75l2.17-.37c1.07-.18,1.56-.28,1.96-.4v1.71c0,3.28-2.94,4.32-4.53,4.32-1.47,0-3.06-.77-3.06-2.51M113.83,96.06c.7,0,1.38-.12,1.81-.24v-2.21c-.18.03-.4.06-.58.06-.83,0-1.1-.46-1.1-1.23v-8.33c0-3.43-2.63-5.02-6.22-5.02-5.33,0-6.49,2.57-6.61,5.39h2.82c.03-1.93,1.38-2.91,3.71-2.91,2.79,0,3.43,1.22,3.43,2.6v1.26c-.28.15-1.07.31-1.62.37l-4.01.55c-4.04.55-4.96,2.72-4.96,5.05,0,3.12,2.33,4.68,5.39,4.68,2.66,0,4.23-.98,5.33-2.2.25,1.47,1.01,2.17,2.63,2.17M95.12,73.59h-2.91v18.77c0,2.39.98,3.43,3.49,3.43.86,0,1.56-.12,2.02-.21v-2.27c-.25.03-.55.03-.92.03-1.22,0-1.68-.34-1.68-1.32v-18.43ZM83.58,79.5h-2.76v16.04h2.94v-9c0-2.88,1.9-4.38,4.16-4.38.31,0,.58.03.92.09v-3.06c-.15-.03-.49-.06-.8-.06-2.05,0-3.46,1.38-4.47,3.12v-2.75ZM64.81,86.21c.15-3.25,2.36-4.56,4.29-4.56,2.6,0,4.04,1.53,4.29,4.56h-8.57ZM61.63,87.83c0,5.69,3.55,8.3,7.69,8.3,3.52,0,6.4-1.93,6.86-5.57h-2.88c-.46,2.11-2.02,3.06-4.19,3.06-2.69,0-4.26-1.59-4.38-5.17h11.66v-.52c0-5.88-2.88-8.82-7.16-8.82-4.72,0-7.59,3.67-7.59,8.72M46.14,87.71c0-3.83,1.74-5.97,4.41-5.97s4.22,2.11,4.22,5.82c0,4.19-1.9,6.03-4.19,6.03-2.57,0-4.44-1.81-4.44-5.88M43.08,87.89c0,5.54,3.55,8.24,6.61,8.24,2.3,0,3.83-.89,5.14-2.82v2.24h2.66v-22.04h-2.85v8.05c-1.32-1.68-2.54-2.36-4.68-2.36-4.19,0-6.89,3.61-6.89,8.7M28.14,86.21c.15-3.25,2.36-4.56,4.29-4.56,2.6,0,4.04,1.53,4.29,4.56h-8.57ZM24.95,87.83c0,5.69,3.55,8.3,7.68,8.3,3.52,0,6.4-1.93,6.86-5.57h-2.88c-.46,2.11-2.02,3.06-4.19,3.06-2.69,0-4.26-1.59-4.38-5.17h11.66v-.52c0-5.88-2.88-8.82-7.16-8.82-4.72,0-7.59,3.67-7.59,8.72M17.45,91.04l-10.75-17.45h-3.71v21.95h3.03v-17.48l10.96,17.48h3.52v-21.95h-3.06v17.45Z"/>
  <path class="cls-1" d="M97.6,51.22c.15-3.25,2.36-4.56,4.29-4.56,2.6,0,4.04,1.53,4.29,4.56h-8.57ZM94.42,52.84c0,5.69,3.55,8.3,7.69,8.3,3.52,0,6.4-1.93,6.86-5.57h-2.88c-.46,2.11-2.02,3.06-4.19,3.06-2.69,0-4.26-1.59-4.38-5.17h11.66v-.52c0-5.88-2.88-8.82-7.16-8.82-4.72,0-7.59,3.67-7.59,8.72M78.62,52.72c0-3.83,1.74-5.97,4.41-5.97s4.22,2.11,4.22,5.82c0,4.19-1.9,6.03-4.19,6.03-2.57,0-4.44-1.81-4.44-5.88M75.56,52.9c0,5.54,3.55,8.24,6.61,8.24,2.3,0,3.83-.89,5.14-2.82v2.23h2.66v-22.04h-2.85v8.05c-1.32-1.68-2.54-2.36-4.69-2.36-4.19,0-6.89,3.61-6.89,8.69M59.61,44.51h-2.75v16.04h2.94v-9c0-2.88,1.9-4.38,4.16-4.38.31,0,.58.03.92.09v-3.06c-.15-.03-.49-.06-.8-.06-2.05,0-3.46,1.38-4.47,3.12v-2.75ZM40.11,52.81c0-4.47,1.99-6.25,4.59-6.25s4.53,1.56,4.53,5.76c0,3.61-1.22,6.31-4.56,6.31-2.45,0-4.56-1.44-4.56-5.82M37.11,52.84c0,5.88,3.55,8.3,7.38,8.3,5.69,0,7.78-4.16,7.78-8.88,0-5.69-3.58-8.24-7.5-8.24-4.99,0-7.65,3.89-7.65,8.82M21.28,52.81c0-4.47,1.99-6.25,4.59-6.25s4.53,1.56,4.53,5.76c0,3.61-1.23,6.31-4.56,6.31-2.45,0-4.56-1.44-4.56-5.82M18.28,52.84c0,5.88,3.55,8.3,7.38,8.3,5.69,0,7.78-4.16,7.78-8.88,0-5.69-3.58-8.24-7.5-8.24-4.99,0-7.66,3.89-7.66,8.82M8.6,57.4l-4.16-12.89H1.07l5.91,16.04h3.09l6-16.04h-3.15l-4.32,12.89Z"/>
  <path class="cls-1" d="M131.49,5.11v4.41h-2.21v2.33h2.21v10.53c0,2.39,1.19,3.43,3.7,3.43.86,0,1.5-.12,1.96-.21v-2.3c-.25.03-.7.06-1.07.06-1.22,0-1.65-.34-1.65-1.32v-10.19h2.73v-2.33h-2.73v-4.41h-2.94ZM115.24,9.52h-2.94v10.84c0,4.16,2.08,5.63,5.36,5.63,2.51,0,4.04-1.13,5.02-2.79l.03,2.36h2.69V9.52h-2.88v9.46c0,2.6-1.78,4.47-4.29,4.47-1.93,0-3-.98-3-3.43v-10.5ZM96.62,9.52h-2.94v10.84c0,4.16,2.08,5.63,5.36,5.63,2.51,0,4.04-1.13,5.02-2.79l.03,2.36h2.69V9.52h-2.88v9.46c0,2.6-1.78,4.47-4.29,4.47-1.93,0-3-.98-3-3.43v-10.5ZM83.82,5.11v4.41h-2.21v2.33h2.21v10.53c0,2.39,1.19,3.43,3.7,3.43.86,0,1.5-.12,1.96-.21v-2.3c-.25.03-.7.06-1.07.06-1.22,0-1.65-.34-1.65-1.32v-10.19h2.73v-2.33h-2.73v-4.41h-2.94ZM77.73,9.52h-3v16.04h3V9.52ZM77.73,3.58h-3v3.15h3v-3.15ZM64.87,5.11v4.41h-2.2v2.33h2.2v10.53c0,2.39,1.19,3.43,3.7,3.43.86,0,1.5-.12,1.96-.21v-2.3c-.25.03-.7.06-1.07.06-1.22,0-1.65-.34-1.65-1.32v-10.19h2.73v-2.33h-2.73v-4.41h-2.94ZM46.78,14.21c0,2.33,1.59,3.46,4.81,4.26l2.2.55c2.6.64,3.09,1.13,3.09,2.24,0,1.56-1.41,2.51-3.61,2.51-2.82,0-3.95-1.19-4.1-3.25h-2.85c.21,4.38,3.12,5.66,6.8,5.66,4.41,0,6.67-2.3,6.67-5.27,0-2.54-1.23-3.67-5.42-4.68l-1.9-.46c-2.14-.52-2.75-1.19-2.75-2.2,0-1.29,1.16-2.02,3.03-2.02,2.51,0,3.64,1.04,3.7,2.6h2.79c-.06-3.03-2.33-5.05-6.31-5.05-3.43,0-6.15,1.81-6.15,5.11M31.38,9.52h-2.79v16.04h2.91v-9.37c0-2.91,2.14-4.47,4.44-4.47,1.99,0,3,1.32,3,3.77v10.07h2.97v-10.35c0-4.41-1.96-6.06-5.33-6.06-2.24,0-3.86.89-5.2,2.63v-2.27ZM23.08,9.52h-3v16.04h3V9.52ZM23.08,3.58h-3v3.15h3v-3.15ZM11.51,0L0,27.16l2.88,1.22L14.39,1.22l-2.88-1.22Z"/>
</svg>